<svg width="256" height="131" viewBox="0 0 256 131" fill="none" xmlns="http://www.w3.org/2000/svg">
<path d="M256 93.602H246.471C213.506 35.139 133.666 70.165 148.347 130.383H131.252V114.399H126.713V130.383H110.535V114.254H89.578V130.383H74.222V114.206H68.717V130.383H53.216V114.254H42.447V130.383H0C0 33.098 92.09 -16.578 168.002 5.137C168.927 2.722 171.124 0.942 174.423 0C177.527 1.712 179.759 4.76 180.868 9.524C183.234 10.477 185.577 11.503 187.893 12.606C187.893 12.606 192.097 8.354 197.988 8.403C200.982 12.749 200.934 19.813 200.934 19.813C224.83 34.983 244.729 59.247 256 93.602Z" fill="#FB505D"/>
<path d="M190.197 39.7741C190.197 47.0281 184.316 52.9091 177.062 52.9091C169.808 52.9091 163.927 47.0281 163.927 39.7741C163.927 32.5201 169.808 26.6391 177.062 26.6391C184.316 26.6391 190.197 32.5201 190.197 39.7741Z" fill="#F9FFFF"/>
<path d="M187.107 43.6374C187.107 46.4114 184.858 48.6594 182.085 48.6594C179.311 48.6594 177.062 46.4114 177.062 43.6374C177.062 40.8644 179.311 38.6154 182.085 38.6154C184.858 38.6154 187.107 40.8644 187.107 43.6374Z" fill="#FC5252"/>
</svg>
